<svg xmlns="http://www.w3.org/2000/svg" xmlns:xlink="http://www.w3.org/1999/xlink"  zoomAndPan="magnify" viewBox="0 0 375 374.999991" preserveAspectRatio="xMidYMid meet" version="1.0"><defs><g/></defs><path fill="#e4e2dd" d="M 371.695312 185.886719 C 371.695312 83.246094 288.492188 0.0429688 185.847656 0.0429688 C 83.203125 0.0429688 0 83.246094 0 185.886719 C 0 287.496094 81.550781 370.089844 182.765625 371.734375 L 371.695312 371.734375 L 313.308594 321.15625 C 317.914062 316.828125 322.285156 312.273438 326.421875 307.5 C 330.558594 302.726562 334.445312 297.75 338.074219 292.578125 C 341.703125 287.40625 345.058594 282.0625 348.140625 276.546875 C 351.222656 271.03125 354.019531 265.375 356.523438 259.574219 C 359.027344 253.773438 361.226562 247.859375 363.125 241.832031 C 365.027344 235.804688 366.613281 229.699219 367.886719 223.507812 C 369.160156 217.320312 370.117188 211.082031 370.753906 204.796875 C 371.390625 198.507812 371.703125 192.207031 371.695312 185.886719 Z M 371.695312 185.886719 " fill-opacity="1" fill-rule="nonzero"/><g fill="#1d2737" fill-opacity="1"><g transform="translate(24.753271, 252.374113)"><g><path d="M 48.03125 -92.0625 L 48.03125 -40.234375 C 48.03125 -35.597656 48.097656 -32.296875 48.234375 -30.328125 C 48.660156 -24.859375 50.273438 -21.316406 53.078125 -19.703125 C 55.890625 -18.085938 61.300781 -17.554688 69.3125 -18.109375 L 69.3125 0.84375 C 63.269531 1.820312 56.878906 2.3125 50.140625 2.3125 C 39.460938 2.3125 31.84375 0.523438 27.28125 -3.046875 C 22.71875 -6.628906 20.082031 -12.492188 19.375 -20.640625 C 19.09375 -24.015625 18.953125 -29.421875 18.953125 -36.859375 L 18.953125 -92.0625 L 2.53125 -92.0625 L 2.53125 -111.21875 L 18.953125 -111.21875 L 18.953125 -138.828125 L 48.03125 -138.828125 L 48.03125 -111.21875 L 71.203125 -111.21875 L 71.203125 -92.0625 Z M 48.03125 -92.0625 "/></g></g></g><g fill="#1d2737" fill-opacity="1"><g transform="translate(82.887455, 252.374113)"><g><path d="M 78.359375 0 L 76.25 -16.4375 L 70.78125 -4.421875 C 63.476562 0.492188 54.207031 2.953125 42.96875 2.953125 C 32.71875 2.953125 24.148438 0.0703125 17.265625 -5.6875 C 10.390625 -11.445312 6.953125 -19.453125 6.953125 -29.703125 C 6.953125 -42.054688 12.179688 -51.566406 22.640625 -58.234375 C 33.109375 -64.910156 48.453125 -68.25 68.671875 -68.25 L 75.84375 -68.25 L 75.84375 -70.5625 C 75.84375 -75.0625 75.703125 -78.578125 75.421875 -81.109375 C 74.429688 -90.085938 68.671875 -94.578125 58.140625 -94.578125 C 46.484375 -94.578125 40.234375 -88.257812 39.390625 -75.625 L 11.171875 -75.421875 C 11.585938 -87.773438 16.253906 -97.460938 25.171875 -104.484375 C 34.085938 -111.503906 45.425781 -115.015625 59.1875 -115.015625 C 87.132812 -115.015625 102.09375 -103.988281 104.0625 -81.9375 C 104.488281 -76.601562 104.703125 -70.847656 104.703125 -64.671875 L 104.703125 -28.4375 C 104.703125 -19.875 105.398438 -10.394531 106.796875 0 Z M 54.140625 -17.484375 C 60.316406 -17.484375 65.476562 -19.585938 69.625 -23.796875 C 73.769531 -28.015625 75.84375 -33.84375 75.84375 -41.28125 L 75.84375 -50.34375 C 50 -52.164062 37.078125 -46.054688 37.078125 -32.015625 C 37.078125 -22.328125 42.765625 -17.484375 54.140625 -17.484375 Z M 54.140625 -17.484375 "/></g></g></g><g fill="#1d2737" fill-opacity="1"><g transform="translate(183.360033, 252.374113)"><g><path d="M 41.5 -154.828125 L 41.5 -36.65625 C 41.5 -31.738281 41.566406 -28.296875 41.703125 -26.328125 C 41.984375 -23.378906 43.035156 -21.410156 44.859375 -20.421875 C 46.691406 -19.441406 49.992188 -19.09375 54.765625 -19.375 L 54.765625 0.625 C 49.710938 1.1875 43.742188 1.46875 36.859375 1.46875 C 21.410156 1.46875 13.40625 -5.128906 12.84375 -18.328125 C 12.5625 -21.703125 12.421875 -27.597656 12.421875 -36.015625 L 12.421875 -154.828125 Z M 41.5 -154.828125 "/></g></g></g><g fill="#1d2737" fill-opacity="1"><g transform="translate(224.221821, 252.374113)"><g><path d="M 51.609375 -44.234375 L 42.34375 -34.125 L 42.34375 0 L 13.265625 0 L 13.265625 -154.828125 L 42.34375 -154.828125 L 42.34375 -60.875 L 87.421875 -112.0625 L 122.390625 -112.0625 L 72.671875 -60.03125 L 123.015625 0 L 86.375 0 Z M 51.609375 -44.234375 "/></g></g></g></svg>